<?xml version="1.0" standalone="no"?>
<!DOCTYPE svg PUBLIC "-//W3C//DTD SVG 20010904//EN"
 "http://www.w3.org/TR/2001/REC-SVG-20010904/DTD/svg10.dtd">
<svg version="1.0" xmlns="http://www.w3.org/2000/svg"
 width="700.000000pt" height="700.000000pt" viewBox="0 0 700.000000 700.000000"
 preserveAspectRatio="xMidYMid meet">
<metadata>
Created by potrace 1.14, written by Peter Selinger 2001-2017
</metadata>
<g transform="translate(0.000000,700.000000) scale(0.100000,-0.100000)"
fill="#000000" stroke="none">
<path d="M0 4560 c0 -2317 1 -2440 18 -2440 29 0 315 38 450 60 477 77 958
214 1339 382 l93 40 2 1349 3 1349 90 -51 c266 -152 513 -407 641 -661 106
-211 129 -310 204 -893 33 -258 62 -484 65 -501 l5 -32 153 89 c83 49 180 104
215 122 34 17 64 39 67 47 11 37 35 236 40 340 6 98 -19 877 -41 1273 l-6 117
-32 0 c-48 0 -378 68 -390 80 -8 8 -6 14 6 21 32 18 48 40 48 68 0 48 -18 59
-119 76 -52 8 -99 19 -103 23 -5 5 20 19 59 33 67 24 68 24 68 61 0 20 5 41
10 47 6 5 109 44 230 86 195 69 245 92 245 115 0 4 -13 27 -30 51 l-30 44 29
12 c19 8 30 22 34 42 6 31 7 31 71 31 l65 0 6 33 c9 55 24 226 31 362 8 144
18 194 28 135 3 -19 10 -125 16 -235 5 -110 15 -220 23 -245 l13 -45 58 -3
c54 -3 58 -5 68 -33 6 -18 22 -35 39 -42 l29 -12 -30 -44 c-33 -48 -36 -64
-17 -78 6 -6 84 -33 172 -62 88 -28 193 -67 233 -86 l73 -34 -3 -38 -3 -38 68
-24 c37 -13 67 -27 67 -30 0 -4 -45 -15 -100 -25 -55 -10 -107 -24 -115 -32
-27 -27 -19 -76 17 -105 l32 -27 -53 -16 c-58 -17 -269 -60 -343 -71 l-48 -6
0 -52 c0 -29 -9 -268 -20 -532 -20 -487 -25 -818 -14 -912 l7 -51 66 25 c100
39 317 108 399 128 58 14 73 22 77 39 2 12 13 95 25 186 27 216 45 303 87 424
103 296 299 558 562 750 73 53 219 143 241 148 13 3 15 -81 15 -702 l0 -705
120 3 c338 10 950 -37 1478 -114 93 -13 175 -24 183 -24 12 0 14 235 14 1625
l0 1625 -3500 0 -3500 0 0 -2440z"/>
<path d="M2172 3848 l3 -923 75 -3 75 -3 30 68 c22 52 47 86 105 143 41 41 94
84 118 94 23 11 42 23 42 28 0 24 -112 860 -121 908 -34 171 -124 367 -236
514 -37 49 -74 91 -81 94 -10 3 -12 -182 -10 -920z"/>
<path d="M4888 4733 c-119 -133 -222 -327 -268 -509 -19 -73 -66 -392 -59
-398 3 -3 234 25 337 40 l32 5 0 449 c0 248 -2 450 -4 450 -2 0 -19 -17 -38
-37z"/>
</g>
</svg>
