<svg id="logo-uaws" xmlns="http://www.w3.org/2000/svg" xmlns:xlink="http://www.w3.org/1999/xlink" viewBox="0 0 1080 1080"><defs><linearGradient id="linear-gradient" x1="540" y1="712.64" x2="540" y2="10.5" gradientUnits="userSpaceOnUse"><stop offset=".44" stop-color="#005bbb"/><stop offset=".55" stop-color="#0562c0"/><stop offset=".71" stop-color="#1576cf"/><stop offset=".91" stop-color="#3096e7"/><stop offset="1" stop-color="#3fa9f5"/></linearGradient><linearGradient id="linear-gradient-2" x1="437.75" y1="613.37" x2="691.14" y2="1052.24" gradientUnits="userSpaceOnUse"><stop offset="0" stop-color="#ffe36c"/><stop offset=".04" stop-color="#fbdd5d"/><stop offset=".12" stop-color="#f5d440"/><stop offset=".22" stop-color="#f0cb28"/><stop offset=".33" stop-color="#ebc516"/><stop offset=".46" stop-color="#e9c109"/><stop offset=".63" stop-color="#e7be02"/><stop offset="1" stop-color="#e7be00"/></linearGradient></defs><rect width="1080" height="780" style="fill:url(#linear-gradient);"/><path d="M1080,501.8C421.81,397.34,524.49,699.35,0,753.1l.5,326.9H1080V501.8Z" style="fill:url(#linear-gradient-2);"/><g><path d="M573.44,468.56c-2.95,75.82,17.76,150.84,59.73,216.42,58.28,91.05,34.37,207.17-56.18,272.9-11.99,6.72-21.95,16.04-28.99,27.13-7.04-11.09-17-20.41-28.99-27.13-90.55-65.73-114.46-181.85-56.18-272.9,41.97-65.57,62.68-140.6,59.73-216.42l-6.8-174.86c-1.16-29.88,10.38-59.03,32.24-81.38,21.85,22.35,33.4,51.49,32.24,81.38l-6.8,174.86Zm-4.19,443.52c58.97-55.98,70.06-140.68,27.18-207.68-21.06-32.9-37.34-68.14-48.43-104.84-11.1,36.7-27.38,71.94-48.43,104.84-42.88,66.99-31.79,151.7,27.18,207.68v-120.25h42.5v120.25Z" style="fill:#fff;"/><path id="a" d="M666.06,446.46c10.09-77.95,61.14-146.61,136.94-184.19V822.46h-255l-21.25-38.63c0-40.66,31-75.88,74.63-84.81l62.2-12.72c22.9-4.69,37.28-25.36,32.13-46.17-5.15-20.82-27.9-33.89-50.8-29.21-.05,.01-.1,.02-.15,.03l21.3-164.49Zm25.49,132.72c42.18,18.73,59.67,65,39.07,103.34-11.32,21.07-32.55,36.32-57.72,41.47l-62.2,12.72c-24.24,4.96-41.46,24.53-41.46,47.11h191.25V342.5c-28.82,30.61-46.99,68.31-52.21,108.32l-16.74,128.37Zm34.94,50.11h42.5v38.63h-42.5v-38.63Z" style="fill:#fff;"/><path id="a-2" d="M429.94,446.27c-10.09-77.95-61.14-146.61-136.94-184.19V822.28h255l21.25-38.63c0-40.66-31-75.88-74.63-84.81l-62.2-12.72c-22.9-4.69-37.28-25.36-32.13-46.17,5.15-20.82,27.9-33.89,50.8-29.21,.05,.01,.1,.02,.15,.03l-21.3-164.49Zm-25.49,132.72c-42.18,18.73-59.67,65-39.07,103.34,11.32,21.07,32.55,36.32,57.72,41.47l62.2,12.72c24.24,4.96,41.46,24.53,41.46,47.11h-191.25V342.31c28.82,30.61,46.99,68.31,52.21,108.32l16.74,128.37Zm-34.94,50.11h-42.5v38.63h42.5v-38.63Z" style="fill:#fff;"/><path d="M497.96,283.98c-14.82-2.93-29.26-5.78-43.7-8.7-1.08-.22-2.17-.73-3.06-1.39-.83-.61-1.93-1.62-1.9-2.41,.03-.72,1.31-1.63,2.22-2.04q8.72-3.91,6.58-13.15c-1.26-5.42-2.45-6.34-8.3-7.17-7.93-1.12-15.84-2.37-23.74-3.65-1.34-.22-2.61-.87-4.13-2.26,2.87-1.09,5.73-2.22,8.62-3.26,3.3-1.19,6.58-2.54,9.98-3.37,3.19-.78,3.71-2.43,3.36-5.43-.97-8.37-.96-8.72,6.89-11.56,20.39-7.37,40.88-14.48,61.38-21.55,5.85-2.02,7.37-5.07,4.51-10.69-.95-1.86-2.31-3.52-3.53-5.23-1.22-1.7-2.51-3.34-4.17-5.53,1.37-.51,2.29-.97,3.26-1.2,5.99-1.43,6.81-2.12,7.02-8.08,.1-2.84,1.15-3.72,3.78-3.68,5.48,.08,10.96,.03,17.45,.03,1.24-11.75,2.63-22.85,3.53-33.99,1.31-16.32,2.25-32.66,3.39-48.99,.06-.9,.43-1.77,.65-2.66,.37,0,.74-.01,1.11-.02,.43,3.91,1.06,7.81,1.27,11.74,1,19.19,1.84,38.38,2.87,57.56,.11,1.98,1.19,3.9,1.72,5.87,.5,1.87,1.24,3.78,1.22,5.67-.04,3.5,1.4,4.8,4.84,4.71,4.09-.11,8.19,.19,12.29,.26,2.53,.04,4.26,1.31,4.16,3.76-.22,5.43,2.64,7.46,7.52,7.88,.87,.07,1.69,.73,2.93,1.3-2.02,2.45-3.89,4.52-5.54,6.75-1.08,1.45-2.15,3.04-2.69,4.73-2.03,6.4-.69,8.27,5.66,10.15,21.77,6.44,43.53,12.93,64.1,22.78,3.47,1.66,5.32,3.21,4.06,7.67-1.64,5.77-.84,6.44,4.96,8.46,5.42,1.88,10.83,3.79,16.24,5.69,.02,.44,.04,.88,.06,1.31-3.51,.73-7.01,1.55-10.55,2.17-6.77,1.19-13.6,2.07-20.31,3.52-1.65,.36-3.04,2.32-4.32,3.75-.6,.67-.65,1.83-.92,2.78q-2.58,9.12,5.94,12.91c1.1,.49,2.08,1.26,3.97,2.44-2.33,1.18-3.78,2.28-5.4,2.69-24.06,6-48.28,11.85-73.05,13.11-17.98,.92-36.11-.82-54.16-1.62-5.91-.26-11.79-1.31-18.07-2.05Z" style="fill:#fff;"/></g></svg>