<svg class="site-logo__svg" viewBox="0 0 170 56" width="170" height="56" xmlns="http://www.w3.org/2000/svg"><g fill="none" fill-rule="evenodd"><path d="M145.637 11.287c-1.375-4.26-.694-9.937-.694-9.937s-4.587 2.087-7.752 7.155c-3.974 6.36-2.582 15.235-1.39 18.878l12.618 5.863 6.558-6.558s-7.353-9.24-9.34-15.401" fill="#30498C"></path><path d="m148.58 34.141-13.388-6.218-.101-.31c-1.25-3.82-2.714-12.813 1.466-19.504 3.289-5.263 8.075-7.439 8.075-7.439l1.21-.55-.16 1.318s-.627 5.615.665 9.618c.946 2.93 3.252 6.768 5.321 9.822a96.01 96.01 0 0 0 3.89 5.342l.418.521-7.397 7.4Zm-.32-1.795 5.735-5.738c-.319-.402-1.67-2.096-3.562-4.893-2.105-3.104-4.464-6.966-5.508-10.2-1.141-3.542-.943-7.093-.805-8.778-1.286.718-3.92 2.362-6.294 6.164-3.687 5.899-2.499 14.349-1.383 17.955l11.817 5.49Z" fill="#FFFFFE"></path><path d="M159.049 36.622c4.074-9.736 9.04-13.213 9.04-13.213S156.733 21.422 151 25.195c-8.146 5.366-8.743 14.209-13.214 20.17-4.171 5.564-9.34 8.047-9.34 8.047s11.896 2.289 18.184 0c8.742-3.178 10.066-11.17 12.418-16.79" fill="#F2CE24"></path><path d="M141.17 55.133c-2.044.106-4.143.027-6.046-.119-3.802-.289-6.818-.866-6.818-.866l-2.22-.429 2.04-.978s5.005-2.413 9.065-7.823c2.137-2.853 3.402-6.504 5.15-10.183 1.75-3.674 4.027-7.382 8.248-10.16 3.107-2.048 7.49-2.46 11.112-2.434 3.621.023 6.518.532 6.518.532l1.781.31-1.481 1.038s-1.145.792-2.85 2.824c-1.704 2.03-3.925 5.268-5.932 10.066-1.145 2.739-2.069 6.182-3.846 9.385-1.778 3.201-4.456 6.164-9.006 7.82-1.68.61-3.669.907-5.715 1.017Zm-.068-1.51c1.954-.107 3.811-.38 5.271-.912 4.196-1.525 6.55-4.148 8.21-7.14 1.66-2.995 2.573-6.357 3.777-9.236 2.066-4.94 4.369-8.311 6.163-10.452.748-.89 1.34-1.457 1.866-1.95a40.925 40.925 0 0 0-4.701-.3c-3.488-.023-7.648.459-10.276 2.188-3.921 2.581-6.017 5.981-7.72 9.559-1.703 3.575-2.975 7.324-5.307 10.434-3.048 4.068-5.958 6.037-7.767 7.122 1.106.183 2.04.393 4.621.589 1.856.141 3.909.203 5.863.097Z" fill="#FFFFFE"></path><path d="M121.195 24.996c-3.817-7.45 2.98-17.88 2.98-17.88s1.692 6.456 7.85 11.225c5.446 4.217 11.152 5.366 16.294 12.32 6.829 9.24-1.292 21.063-1.292 21.063s0-6.002-8.247-11.823c-8.271-5.84-13.413-6.756-17.585-14.905" fill="#406AA5"></path><path d="M146.282 54.13v-2.406s.015-1.304-.965-3.415c-.975-2.114-2.943-4.958-6.967-7.8-4.092-2.888-7.422-4.561-10.324-6.58-2.904-2.023-5.358-4.418-7.497-8.593-2.054-4.011-1.235-8.683.02-12.32 1.256-3.633 3.003-6.312 3.003-6.312l.919-1.413.43 1.635s1.628 6.215 7.583 10.824c5.295 4.1 11.163 5.33 16.438 12.465 3.589 4.858 3.243 10.41 2.031 14.647-1.215 4.24-3.309 7.284-3.309 7.284l-1.362 1.984Zm1.061-4.428a24.581 24.581 0 0 0 2.173-5.251c1.139-3.982 1.442-8.962-1.797-13.346-5.006-6.774-10.558-7.841-16.152-12.173-5.175-4.006-6.875-8.349-7.489-10.147a28.022 28.022 0 0 0-2.117 4.72c-1.189 3.444-1.862 7.713-.1 11.152 2.033 3.973 4.24 6.11 7.018 8.044 2.777 1.934 6.152 3.637 10.333 6.588 4.223 2.98 6.378 6.049 7.462 8.393.38.816.507 1.404.669 2.02ZM35 15.218h5.086l7.221 11.803h.048V15.218h3.742v16.985h-4.894l-7.412-12.091h-.048v12.091H35V15.218M58.726 23.71c0 .8.123 1.532.371 2.196a5.02 5.02 0 0 0 1.068 1.727c.464.488 1.02.868 1.667 1.14.648.271 1.371.407 2.171.407.8 0 1.524-.136 2.171-.408a4.87 4.87 0 0 0 2.735-2.866 6.23 6.23 0 0 0 .372-2.195 6.26 6.26 0 0 0-.372-2.183 5.015 5.015 0 0 0-1.067-1.74 4.88 4.88 0 0 0-1.668-1.14c-.647-.27-1.371-.407-2.17-.407-.8 0-1.524.136-2.172.408a4.877 4.877 0 0 0-1.667 1.14 5.002 5.002 0 0 0-1.068 1.739 6.253 6.253 0 0 0-.371 2.183Zm-3.887 0c0-1.359.228-2.59.684-3.694a8.104 8.104 0 0 1 1.907-2.819 8.407 8.407 0 0 1 2.903-1.787c1.12-.416 2.342-.624 3.67-.624 1.328 0 2.55.208 3.67.624a8.41 8.41 0 0 1 2.903 1.787 8.104 8.104 0 0 1 1.907 2.82c.456 1.103.684 2.334.684 3.694 0 1.36-.228 2.59-.684 3.694a8.1 8.1 0 0 1-1.907 2.819 8.4 8.4 0 0 1-2.902 1.787c-1.12.416-2.343.624-3.67.624-1.329 0-2.552-.208-3.671-.624a8.396 8.396 0 0 1-2.903-1.787 8.1 8.1 0 0 1-1.907-2.82c-.456-1.103-.684-2.334-.684-3.693ZM75.23 15.218h4.27l4.198 11.131h.048l4.27-11.131h4.006l-7.004 16.985h-2.999L75.23 15.218M100.707 20.16l-2.063 5.278h4.15l-2.087-5.278Zm-1.44-4.942h3.095l7.39 16.985h-4.223l-1.464-3.599h-6.597l-1.415 3.599h-4.126l7.34-16.985ZM2.303 37.708V48.12c0 .528.072 1.076.216 1.643.144.568.384 1.092.72 1.571.335.48.775.872 1.319 1.176.543.304 1.215.456 2.015.456s1.471-.152 2.015-.456a3.91 3.91 0 0 0 1.32-1.176c.335-.48.575-1.003.72-1.57a6.676 6.676 0 0 0 .215-1.644V37.708h2.303V48.48c0 .991-.168 1.891-.504 2.698a6.418 6.418 0 0 1-1.391 2.1 6.141 6.141 0 0 1-2.087 1.367c-.8.32-1.664.48-2.59.48-.929 0-1.792-.16-2.592-.48a6.135 6.135 0 0 1-2.087-1.367 6.413 6.413 0 0 1-1.391-2.1C.168 50.371 0 49.471 0 48.48V37.708h2.303M18.4 37.708h2.303v7.341h.192l7.508-7.341h3.215l-8.204 7.845 8.756 9.14h-3.359l-7.916-8.492h-.192v8.492H18.4V37.708M37.447 45.193h3.023c.448 0 .891-.036 1.331-.108a3.58 3.58 0 0 0 1.176-.396c.344-.192.62-.467.827-.827.208-.36.312-.828.312-1.404 0-.575-.104-1.043-.312-1.403a2.166 2.166 0 0 0-.827-.828 3.58 3.58 0 0 0-1.176-.395 8.226 8.226 0 0 0-1.331-.108h-3.023v5.47Zm-2.303-7.485h5.974c1.087 0 1.983.148 2.686.444.704.296 1.26.672 1.668 1.128.408.456.691.968.851 1.535.16.568.24 1.116.24 1.643a4.441 4.441 0 0 1-1.115 2.939c-.36.408-.8.752-1.32 1.032s-1.1.452-1.739.515l4.822 7.749h-2.879l-4.318-7.485h-2.567v7.485h-2.303V37.708ZM60.453 48.48l-3.167-7.797h-.048l-3.214 7.797h6.429Zm-4.126-10.772h2.087l7.269 16.985h-2.687l-1.703-4.198h-8.085l-1.68 4.198h-2.686l7.485-16.985ZM69.089 54.693h2.303V37.708h-2.303zM76.958 37.708h3.022l9.356 13.962h.048V37.708h2.303v16.985H88.76l-9.451-13.962h-.049v13.962h-2.302V37.708M97.252 37.708h10.964v2.159h-8.661v5.062h8.061v2.159h-8.061v5.446h9.093v2.159H97.252V37.708" fill="#FFFFFE"></path></g></svg>